Coordinates
version=1
nRows=29
nColumns=24
inDegrees=yes

Units are S.I. units (second, meters, Newtons, ...)
Angles are in degrees.

endheader
time	pelvis_tilt	pelvis_list	pelvis_rotation	pelvis_tx	pelvis_ty	pelvis_tz	hip_flexion_r	hip_adduction_r	hip_rotation_r	knee_angle_r	ankle_angle_r	subtalar_angle_r	mtp_angle_r	hip_flexion_l	hip_adduction_l	hip_rotation_l	knee_angle_l	ankle_angle_l	subtalar_angle_l	mtp_angle_l	lumbar_extension	lumbar_bending	lumbar_rotation
      1.04583333	      0.21775033	     -5.85907292	     -2.19519540	     -0.16749116	      1.06366778	      0.36186293	    -14.43748567	     10.55108716	      0.98177614	     -3.34908614	      3.79274383	    -11.92464605	      1.21200509	     19.60663823	     -3.56904244	     -1.24816777	      3.03079086	     -0.97040604	     -5.75488467	     -7.80473528	      2.16906115	     10.61647881	      1.33200410
      1.05000000	      0.17136331	     -5.89132652	     -2.16276225	     -0.16187967	      1.06298104	      0.36153881	    -14.51818357	     10.56589901	      1.01579322	     -3.73271920	      3.79555403	    -11.96234204	      1.21107148	     19.52076536	     -3.52522854	     -1.25016676	      3.31656791	     -1.02320750	     -5.66710147	     -7.79523976	      2.23067325	     10.64153172	      1.32908401
      1.05416667	      0.15050311	     -5.88491092	     -2.13478660	     -0.15613401	      1.06237760	      0.36137767	    -14.63964241	     10.54877818	      1.15932943	     -4.11149552	      3.91908171	    -12.09868703	      1.20805932	     19.42444424	     -3.45241217	     -1.50621561	      3.51005271	     -1.43849042	     -5.25434212	     -7.73775802	      2.36235183	     10.57649675	      1.32916822
      1.05833333	      0.10432442	     -5.89324895	     -2.12412224	     -0.15043659	      1.06178199	      0.36111725	    -14.69174287	     10.53382401	      1.21717123	     -4.55837895	      3.90747011	    -12.13910279	      1.20762968	     19.33488657	     -3.39762825	     -1.49783489	      3.65197127	     -1.49980986	     -5.15301598	     -7.72496200	      2.40550342	     10.57749236	      1.32394136
      1.06250000	      0.08145902	     -5.89667503	     -2.11861098	     -0.14473662	      1.06125309	      0.36091977	    -14.75426164	     10.51670435	      1.29073810	     -5.03739718	      3.91810590	    -12.20034302	      1.20770051	     19.22757026	     -3.34679804	     -1.51748657	      3.72089257	     -1.67550623	     -5.00812421	     -7.70853879	      2.48908557	     10.54424057	      1.32292921
      1.06666667	      0.03001578	     -5.83679252	     -2.08960415	     -0.13877759	      1.06073748	      0.36081151	    -14.81025183	     10.44516082	      1.45080917	     -5.48365459	      3.99177278	    -12.35120552	      1.20968718	     19.16054023	     -3.22762359	     -1.72761112	      3.71881030	     -2.24768609	     -4.68123704	     -7.65331425	      2.59098245	     10.42910208	      1.31388800
      1.07083333	     -0.01118088	     -5.82253440	     -2.11117842	     -0.13301123	      1.06028068	      0.36070764	    -14.82112324	     10.40494123	      1.56356790	     -6.02857916	      3.95103589	    -12.44561057	      1.21302678	     19.08076471	     -3.17667946	     -1.80595694	      3.65033239	     -2.49828242	     -4.53592594	     -7.58940825	      2.64745632	     10.35399153	      1.30181616
      1.07500000	     -0.04379040	     -5.79601105	     -2.08522074	     -0.12718446	      1.05985462	      0.36055809	    -14.83284417	     10.36402506	      1.64086751	     -6.58248360	      3.91101712	    -12.52350133	      1.21873568	     18.99951004	     -3.10415975	     -1.80928497	      3.52498433	     -2.80954113	     -4.45438140	     -7.52490746	      2.74740859	     10.26303670	      1.30345974
      1.07916667	     -0.04114951	     -5.78119263	     -2.05784554	     -0.12144375	      1.05951157	      0.36039915	    -14.85096134	     10.33204147	      1.68954556	     -7.18818952	      3.86215351	    -12.54787865	      1.22107596	     18.88793665	     -3.04930923	     -1.75060229	      3.33517351	     -2.92961278	     -4.43383853	     -7.50733397	      2.82160328	     10.19919642	      1.31068666
      1.08333333	     -0.10776396	     -5.70793961	     -2.02552203	     -0.11545142	      1.05914122	      0.36019461	    -14.78494368	     10.23591452	      1.63140170	     -7.81914112	      3.76034118	    -12.57381552	      1.23348377	     18.83066188	     -2.92893218	     -1.70261002	      3.15154424	     -3.52877008	     -4.47449115	     -7.43924527	      2.88426908	     10.03584795	      1.31029355
      1.08750000	     -0.07828711	     -5.68031910	     -2.00256409	     -0.10968292	      1.05893999	      0.36005569	    -14.79091275	     10.18431749	      1.65996362	     -8.49949311	      3.69004751	    -12.57461385	      1.23824696	     18.68753378	     -2.87537903	     -1.61274645	      2.89135537	     -3.66828968	     -4.49987919	     -7.41889364	      2.98059438	      9.96570202	      1.31686107
      1.09166667	     -0.11693600	     -5.59013449	     -1.89310826	     -0.10364637	      1.05866754	      0.35968899	    -14.70918021	     10.07694607	      1.43426908	     -9.19162045	      3.46693231	    -12.39776301	      1.27691151	     18.61273294	     -2.71603506	     -1.44448496	      2.64328682	     -4.50205490	     -4.93278466	     -7.29052332	      3.12904246	      9.75910068	      1.29912647
      1.09583333	     -0.11022084	     -5.52250544	     -1.91779932	     -0.09779080	      1.05857186	      0.35954020	    -14.64169815	      9.95892964	      1.42163661	     -9.97120444	      3.39195724	    -12.39225714	      1.28459974	     18.46343812	     -2.64089538	     -1.29383413	      2.36763492	     -4.61222469	     -4.97347538	     -7.26754695	      3.16825481	      9.68284048	      1.29664187
      1.10000000	     -0.20693485	     -5.41708385	     -1.76059816	     -0.09176064	      1.05829840	      0.35874717	    -14.42226269	      9.80424139	      0.95107590	    -10.79107779	      3.26584465	    -11.76027362	      1.44870320	     18.41210124	     -2.43607232	     -0.58922025	      2.14971157	     -5.55915039	     -6.40756052	     -6.88489131	      3.33011268	      9.52416649	      1.11571051
      1.10416667	     -0.18698986	     -5.29221512	     -1.65763156	     -0.08569710	      1.05828043	      0.35835497	    -14.32963168	      9.63937784	      0.64628952	    -11.61282817	      2.97426758	    -11.60798349	      1.52065830	     18.26997761	     -2.25775749	     -0.45688008	      1.82645722	     -5.96678471	     -6.52511680	     -6.73625601	      3.42051402	      9.31642206	      1.10161712
      1.10833333	     -0.17290481	     -5.17566186	     -1.58321483	     -0.07975544	      1.05832325	      0.35796078	    -14.18541659	      9.46912826	      0.33603510	    -12.51557116	      2.70479220	    -11.39536757	      1.58579765	     18.14063167	     -2.09965582	     -0.32919884	      1.48085857	     -6.32620506	     -6.75753608	     -6.62618589	      3.43871579	      9.09953164	      1.08758323
      1.11250000	     -0.11976651	     -5.07112984	     -1.60572234	     -0.07390489	      1.05852076	      0.35775214	    -14.06152822	      9.28717856	      0.24562948	    -13.47557827	      2.56661437	    -11.36343468	      1.59935107	     17.94149420	     -2.00349681	     -0.18827237	      1.15037595	     -6.44959286	     -6.76697915	     -6.60591492	      3.48597568	      8.99770639	      1.09035206
      1.11666667	     -0.10444705	     -4.87532763	     -1.37528008	     -0.06776048	      1.05860712	      0.35662258	    -13.85801616	      8.99582416	     -0.51595628	    -14.45668284	      2.21019863	    -10.38066362	      1.89182741	     17.76736738	     -1.67635002	      0.49708541	      0.89077532	     -7.36563223	     -8.10852830	     -6.25413642	      3.48521877	      8.74326372	      0.89703633
      1.12083333	     -0.08656331	     -4.68681003	     -1.34203851	     -0.06166035	      1.05885592	      0.35617050	    -13.64434284	      8.70632672	     -0.87876238	    -15.49623855	      1.87620901	    -10.29248669	      1.93928138	     17.61012908	     -1.45837586	      0.51519694	      0.53169485	     -7.55190964	     -8.13926088	     -6.20077440	      3.47070181	      8.52492423	      0.90644495
      1.12500000	     -0.01493699	     -4.51534166	     -1.17951338	     -0.05563207	      1.05915739	      0.35552039	    -13.46016698	      8.45190622	     -1.39737947	    -16.54501026	      1.25094939	     -9.84729194	      2.05069810	     17.42815974	     -1.22376550	      0.66841636	      0.14235916	     -7.93962761	     -8.34978964	     -6.09792985	      3.56426614	      8.20432359	      0.91420004
      1.12916667	     -0.00133445	     -4.29916567	     -1.16824343	     -0.04955648	      1.05950506	      0.35492489	    -13.17120288	      8.09356027	     -1.81027644	    -17.71083502	      0.88948313	     -9.62957742	      2.11722702	     17.25531367	     -0.97741960	      0.79497356	     -0.19149032	     -8.12583202	     -8.48283323	     -6.04293943	      3.48559825	      8.02407148	      0.89407292
      1.13333333	      0.13655687	     -4.11059061	     -0.94818716	     -0.04367812	      1.05995229	      0.35376084	    -12.97630600	      7.76484232	     -2.50373344	    -18.89371059	      0.39090449	     -8.70998417	      2.57639896	     16.97047086	     -0.68285392	      1.43718266	     -0.51474174	     -8.70144401	     -9.57979880	     -5.71901912	      3.49420198	      7.79500791	      0.66401933
      1.13750000	      0.20814725	     -3.88904104	     -0.87003707	     -0.03768474	      1.06042380	      0.35317786	    -12.69454478	      7.40662902	     -2.97995847	    -20.12482216	     -0.20140596	     -8.48191463	      2.68812117	     16.77979477	     -0.42562639	      1.41994336	     -0.92368598	     -8.84819429	     -9.60301397	     -5.64567340	      3.48350715	      7.44361142	      0.68735966
      1.14166667	      0.27634704	     -3.65627625	     -0.78030945	     -0.03165783	      1.06091441	      0.35235334	    -12.38250727	      7.00361843	     -3.49753176	    -21.38623848	     -0.95528136	     -8.07454963	      2.84936290	     16.57094832	     -0.13646515	      1.55506147	     -1.30419192	     -9.00621586	     -9.71289215	     -5.55228516	      3.45698057	      7.16152171	      0.67982006
      1.14583333	      0.36499485	     -3.41022845	     -0.69510390	     -0.02570191	      1.06146478	      0.35154348	    -12.05562742	      6.57634898	     -4.01817359	    -22.70758382	     -1.68811270	     -7.66233713	      3.04085454	     16.33727058	      0.16270360	      1.71073833	     -1.67583541	     -9.13555405	     -9.89424586	     -5.45398571	      3.41293345	      6.86996209	      0.65606969
      1.15000000	      0.51271114	     -3.16016749	     -0.55606539	     -0.01986441	      1.06207022	      0.35044120	    -11.75505899	      6.11920520	     -4.63552956	    -24.09011554	     -2.36766505	     -7.17806116	      3.74535078	     16.03486071	      0.49790074	      2.07735559	     -2.01815887	     -9.37904711	    -10.52979408	     -5.13962434	      3.31245919	      6.71302266	      0.43483516
      1.15416667	      0.58872776	     -2.88176023	     -0.53253848	     -0.01389429	      1.06266927	      0.34975991	    -11.36257919	      5.63090316	     -5.05223102	    -25.49578384	     -3.18872709	     -6.89613281	      3.97311563	     15.79822271	      0.80687507	      2.09377758	     -2.37635100	     -9.40976674	    -10.46721621	     -5.04364025	      3.26756026	      6.28417540	      0.47002698
      1.15833333	      0.70448275	     -2.61172115	     -0.47123543	     -0.00806231	      1.06329410	      0.34896443	    -10.97761597	      5.14335304	     -5.51189120	    -26.94228429	     -4.05713229	     -6.61181053	      4.20468775	     15.53229563	      1.12457338	      2.14114805	     -2.74277523	     -9.40385478	    -10.49112480	     -4.95528948	      3.16696742	      5.97170238	      0.47823737
      1.16250000	      0.79456338	     -2.34638232	     -0.38678032	     -0.00232213	      1.06386584	      0.34814938	    -10.53237205	      4.65873563	     -5.98497634	    -28.43810021	     -4.85415350	     -6.37707315	      4.36007436	     15.31505660	      1.44418884	      2.11511240	     -3.14165656	     -9.38312794	    -10.52801509	     -4.90037610	      3.02613817	      5.61532818	      0.49706921
